<svg width="22" height="18" viewBox="0 0 22 18" fill="none" xmlns="http://www.w3.org/2000/svg">
<path d="M22.0006 2.08746C21.1913 2.44135 20.3209 2.6807 19.408 2.7876C20.34 2.23685 21.0553 1.36541 21.393 0.325338C20.5208 0.83558 19.5544 1.20574 18.5267 1.40526C17.7033 0.540454 16.5302 0 15.2312 0C12.7389 0 10.7175 1.99351 10.7175 4.45146C10.7175 4.80036 10.7576 5.13997 10.835 5.46597C7.08375 5.2804 3.75765 3.50832 1.53127 0.814337C1.14281 1.47165 0.919974 2.23685 0.919974 3.05252C0.919974 4.59653 1.71742 5.95962 2.92789 6.75769C2.18834 6.73478 1.49188 6.53461 0.883618 6.20031C0.88328 6.21922 0.88328 6.23815 0.88328 6.25674C0.88328 8.41359 2.4398 10.2126 4.50426 10.6212C4.12591 10.7235 3.72634 10.7776 3.31533 10.7776C3.02383 10.7776 2.7414 10.75 2.46605 10.6982C3.04032 12.4663 4.70691 13.7534 6.68251 13.7896C5.13744 14.9837 3.19146 15.6951 1.07616 15.6951C0.712618 15.6951 0.352437 15.6742 0 15.6327C1.99647 16.8962 4.36962 17.6329 6.91847 17.6329C15.2208 17.6329 19.7611 10.8499 19.7611 4.96701C19.7611 4.77413 19.7567 4.58192 19.7479 4.39137C20.6305 3.76394 21.3957 2.98014 22.0006 2.08746Z" fill="#F1F2F2"/>
</svg>
