<svg width="15" height="20" viewBox="0 0 15 20" fill="none" xmlns="http://www.w3.org/2000/svg">
<path d="M7.56926 0.257787C3.61054 0.257787 0.257787 3.62985 0.257787 7.62358C0.257787 11.8062 4.14408 16.0836 6.75808 19.0899C6.76834 19.102 7.19083 19.571 7.71109 19.571H7.75696C8.27783 19.571 8.6973 19.102 8.70756 19.0899C11.1604 16.2701 14.7431 11.6197 14.7431 7.62358C14.7431 3.62925 12.1279 0.257787 7.56926 0.257787ZM7.81128 18.2799C7.79016 18.3011 7.75938 18.3246 7.73222 18.3445C7.70445 18.3252 7.67427 18.3011 7.65194 18.2799L7.33628 17.9166C4.85809 15.0739 1.46429 11.1803 1.46429 7.62297C1.46429 4.28411 4.25996 1.46369 7.56865 1.46369C11.6903 1.46369 13.5354 4.55691 13.5354 7.62297C13.5354 10.3233 11.6095 13.9096 7.81128 18.2799ZM7.52158 3.91231C5.522 3.91231 3.90024 5.53346 3.90024 7.53365C3.90024 9.53383 5.522 11.155 7.52158 11.155C9.52115 11.155 11.1429 9.53323 11.1429 7.53365C11.1429 5.53407 9.52176 3.91231 7.52158 3.91231ZM7.52158 9.94787C6.19013 9.94787 5.07959 8.83853 5.07959 7.50709C5.07959 6.17565 6.16237 5.09287 7.49381 5.09287C8.82586 5.09287 9.90803 6.17565 9.90803 7.50709C9.90864 8.83853 8.85362 9.94787 7.52158 9.94787Z" fill="#E6F6FF" stroke="#E6F6FF" stroke-width="0.5"/>
</svg>
