<svg width="16" height="16" viewBox="0 0 16 16" fill="none" xmlns="http://www.w3.org/2000/svg">
<path d="M8.002 0H7.998C3.587 0 0 3.588 0 8C0 9.75 0.564 11.372 1.523 12.689L0.526 15.661L3.601 14.678C4.866 15.516 6.375 16 8.002 16C12.413 16 16 12.411 16 8C16 3.589 12.413 0 8.002 0Z" fill="#3D1F50"/>
<path d="M12.6577 11.2966C12.4647 11.8416 11.6987 12.2936 11.0877 12.4256C10.6697 12.5146 10.1237 12.5856 8.28566 11.8236C5.93469 10.8496 4.42068 8.46064 4.30266 8.30563C4.1897 8.15062 3.35268 7.04061 3.35268 5.89262C3.35268 4.74463 3.93567 4.18563 4.17068 3.94563C4.36366 3.74863 4.68267 3.65863 4.98869 3.65863C5.08768 3.65863 5.17666 3.66362 5.25667 3.66762C5.49168 3.67764 5.60967 3.69162 5.7647 4.06262C5.95767 4.52763 6.42768 5.67564 6.48369 5.79363C6.54067 5.91163 6.59769 6.07164 6.51768 6.22664C6.44268 6.38661 6.37668 6.45763 6.25867 6.59362C6.14071 6.72962 6.02867 6.83362 5.91068 6.97963C5.80266 7.10664 5.68069 7.24263 5.81668 7.47762C5.95267 7.70763 6.4227 8.47462 7.11467 9.09063C8.00769 9.88562 8.73166 10.1396 8.9907 10.2476C9.18367 10.3276 9.41367 10.3086 9.55465 10.1586C9.73369 9.96564 9.95465 9.64563 10.1797 9.33062C10.3397 9.10462 10.5417 9.07663 10.7537 9.15663C10.9697 9.23162 12.1127 9.79662 12.3477 9.91364C12.5827 10.0316 12.7377 10.0876 12.7947 10.1866C12.8507 10.2856 12.8507 10.7506 12.6577 11.2966Z" fill="white"/>
</svg>
