<svg width="23" height="19" viewBox="0 0 23 19" fill="none" xmlns="http://www.w3.org/2000/svg">
<path d="M21.6099 2.80874C20.8249 3.15202 19.9805 3.3842 19.095 3.48789C19.9991 2.95365 20.693 2.10834 21.0205 1.09943C20.1745 1.59438 19.237 1.95344 18.2401 2.14698C17.4414 1.3081 16.3035 0.783846 15.0434 0.783846C12.6258 0.783846 10.665 2.71761 10.665 5.10188C10.665 5.44033 10.7039 5.76976 10.779 6.08599C7.14016 5.90598 3.91374 4.18701 1.75409 1.57378C1.37728 2.21139 1.16112 2.95365 1.16112 3.74487C1.16112 5.24261 1.93466 6.56485 3.10885 7.33899C2.39147 7.31677 1.71589 7.1226 1.12585 6.79832C1.12553 6.81667 1.12553 6.83502 1.12553 6.85306C1.12553 8.94526 2.63539 10.6903 4.63798 11.0867C4.27096 11.1859 3.88337 11.2384 3.48468 11.2384C3.20191 11.2384 2.92796 11.2117 2.66086 11.1614C3.21791 12.8765 4.83455 14.125 6.75093 14.1601C5.25218 15.3185 3.36452 16.0086 1.31263 16.0086C0.959978 16.0086 0.610592 15.9883 0.268719 15.948C2.20535 17.1736 4.50737 17.8882 6.97983 17.8882C15.0333 17.8882 19.4375 11.3086 19.4375 5.60199C19.4375 5.41489 19.4333 5.22844 19.4248 5.04359C20.2809 4.43497 21.0231 3.67467 21.6099 2.80874Z" fill="#F1F2F2" stroke="#707070"/>
</svg>
