<svg width="20" height="20" viewBox="0 0 20 20" fill="none" xmlns="http://www.w3.org/2000/svg">
<path d="M19.9998 18.7863L14.0988 12.8801C15.1822 11.5259 15.8332 9.802 15.8332 7.92701C15.8332 3.54684 12.2863 0 7.91659 0C3.54163 0 0 3.55205 0 7.92701C0 12.302 3.54684 15.854 7.91659 15.854C9.802 15.854 11.5311 15.1926 12.8905 14.0936L18.7863 19.9998L19.9998 18.7863ZM2.90623 12.9478C1.56769 11.6093 0.833321 9.82803 0.833321 7.93222C0.833321 6.03639 1.5729 4.25517 2.90623 2.91664C4.23954 1.57812 6.02598 0.833328 7.91659 0.833328C9.8072 0.833328 11.5884 1.5729 12.927 2.91143C14.2655 4.24996 14.9999 6.03119 14.9999 7.92701C14.9999 9.82283 14.2603 11.6041 12.927 12.9426C11.5884 14.2811 9.8072 15.0207 7.91659 15.0207C6.02598 15.0259 4.24475 14.2863 2.90623 12.9478Z" fill="#3A1B50"/>
</svg>
