<svg width="20" height="17" viewBox="0 0 20 17" fill="none" xmlns="http://www.w3.org/2000/svg">
<path d="M0.506931 15.9482C0.506931 15.6472 0.750921 15.4032 1.0519 15.4032H11.5709C11.8719 15.4032 12.1158 15.6472 12.1158 15.9482C12.1158 16.2492 11.8719 16.4932 11.5709 16.4932H1.0519C0.75092 16.4932 0.506931 16.2492 0.506931 15.9482Z" fill="#412454" stroke="#3D1F50"/>
<path d="M18.2003 11.7632C17.8375 11.7569 17.5486 11.4577 17.5549 11.0949L17.7284 1.15237C17.7348 0.789592 18.034 0.500636 18.3968 0.506969C18.7595 0.513301 19.0485 0.812522 19.0422 1.1753L18.8686 11.1178C18.8623 11.4806 18.5631 11.7695 18.2003 11.7632Z" fill="#412454" stroke="#3D1F50"/>
</svg>
