<svg width="17" height="17" viewBox="0 0 17 17" fill="none" xmlns="http://www.w3.org/2000/svg">
<path d="M5.87565 10.4995C5.87565 11.4657 6.65896 12.2491 7.62519 12.2491H9.24982C10.2851 12.2491 11.1244 11.4098 11.1244 10.3745C11.1244 9.33927 10.2851 8.5 9.24982 8.5H7.75018C6.71491 8.5 5.87565 7.66073 5.87565 6.62546C5.87565 5.59018 6.71491 4.75092 7.75018 4.75092H9.37481C10.341 4.75092 11.1244 5.53423 11.1244 6.50049M8.5 3.6262V4.75092M8.5 12.2491V13.3738M15.9982 8.5C15.9982 12.6411 12.6411 15.9982 8.5 15.9982C4.35888 15.9982 1.00184 12.6411 1.00184 8.5C1.00184 4.35888 4.35888 1.00184 8.5 1.00184C12.6411 1.00184 15.9982 4.35888 15.9982 8.5Z" stroke="#E6F6FF" stroke-width="2" stroke-linecap="round" stroke-linejoin="round"/>
</svg>
