<svg width="18" height="18" viewBox="0 0 18 18" fill="none" xmlns="http://www.w3.org/2000/svg">
<path d="M13.4444 17C13.4444 14.5454 11.4546 12.5556 9 12.5556C6.5454 12.5556 4.55556 14.5454 4.55556 17M13.4444 17H14.1583C15.152 17 15.6489 17 16.0288 16.8064C16.3633 16.636 16.636 16.3633 16.8064 16.0288C17 15.6489 17 15.152 17 14.1583V3.8417C17 2.84799 17 2.3504 16.8064 1.97049C16.636 1.63597 16.3633 1.3642 16.0288 1.19377C15.6485 1 15.1514 1 14.1557 1H3.84462C2.84897 1 2.35077 1 1.97049 1.19377C1.63597 1.3642 1.3642 1.63597 1.19377 1.97049C1 2.35077 1 2.84897 1 3.84462V14.1557C1 15.1514 1 15.6485 1.19377 16.0288C1.3642 16.3633 1.63597 16.636 1.97049 16.8064C2.3504 17 2.84799 17 3.8417 17H4.55556M13.4444 17H4.55556M9 9.88889C7.5272 9.88889 6.33333 8.69502 6.33333 7.22222C6.33333 5.74947 7.5272 4.55556 9 4.55556C10.4728 4.55556 11.6667 5.74947 11.6667 7.22222C11.6667 8.69502 10.4728 9.88889 9 9.88889Z" stroke="#E6F6FF" stroke-width="2" stroke-linecap="round" stroke-linejoin="round"/>
</svg>
