<svg width="16" height="16" viewBox="0 0 16 16" fill="none" xmlns="http://www.w3.org/2000/svg">
<path d="M15.61 11.0332C15.1039 10.0768 13.2371 8.98278 13.2371 8.98278C12.8148 8.742 12.3052 8.71507 12.0642 9.14436C12.0642 9.14436 11.4578 9.87176 11.3034 9.97628C10.5987 10.4538 9.94597 10.4354 9.2871 9.7763L7.75578 8.24498L6.22446 6.71366C5.56533 6.05453 5.54693 5.40205 6.02448 4.69732C6.12901 4.54294 6.8564 3.9366 6.8564 3.9366C7.28543 3.69555 7.25876 3.186 7.01799 2.76364C7.01799 2.76364 5.92396 0.896888 4.96752 0.390804C4.56062 0.175358 4.06094 0.250551 3.73537 0.576119L3.0589 1.25259C0.913774 3.39771 1.96994 5.81988 4.11506 7.96501L6.07568 9.92562L8.03629 11.8862C10.1814 14.0314 12.6036 15.0878 14.7487 12.9424L15.4252 12.2659C15.7502 11.9398 15.8254 11.4401 15.61 11.0332Z" fill="#3E1F50"/>
<path d="M12.192 14.3834C11.911 14.3834 11.6246 14.3495 11.3327 14.282C10.2309 14.0271 9.05848 13.2843 7.84793 12.0737L3.92698 8.15277C2.71643 6.94222 1.97356 5.76953 1.71866 4.66804C1.41282 3.34603 1.80051 2.13335 2.87081 1.06332L3.54701 0.386849C3.95791 -0.0240444 4.57891 -0.117635 5.09246 0.154338C6.10463 0.689753 7.20213 2.54877 7.24826 2.6277C7.44397 2.97113 7.5053 3.32363 7.42211 3.62307C7.35998 3.84812 7.21759 4.0313 7.01015 4.15475C6.68484 4.42673 6.30461 4.76403 6.24515 4.84669C5.81773 5.47702 5.86812 5.97911 6.41341 6.52439L9.47604 9.58703C10.0205 10.1318 10.5223 10.1822 11.1545 9.75475C11.2364 9.69555 11.5737 9.31559 11.8457 8.99029C11.9691 8.78284 12.1523 8.64045 12.3774 8.57833C12.6771 8.49487 13.029 8.55646 13.3701 8.75058C13.4519 8.79857 15.3109 9.89607 15.8464 10.9082C16.1183 11.4215 16.0247 12.0425 15.6138 12.4537L14.9374 13.1299C14.1036 13.9639 13.1832 14.3831 12.192 14.3834ZM4.47599 0.534035C4.27414 0.534035 4.07523 0.612961 3.92404 0.76388L3.24784 1.44035C2.3034 2.38479 1.97303 3.40123 2.23807 4.54778C2.47005 5.55088 3.16518 6.63665 4.30401 7.77547L8.22496 11.6964C9.36378 12.8352 10.4498 13.5304 11.4527 13.7624C12.5984 14.0258 13.6154 13.6973 14.5601 12.7526L15.2366 12.0764C15.4808 11.8319 15.5363 11.4626 15.3749 11.1575C14.9888 10.4277 13.6039 9.50597 13.1029 9.21213C12.8957 9.09428 12.6763 9.04841 12.5197 9.09214C12.4238 9.11881 12.351 9.17827 12.2971 9.27426L12.2694 9.31452C12.0795 9.54197 11.6204 10.0832 11.4529 10.1966C10.6138 10.7653 9.82134 10.6872 9.09848 9.96433L6.03637 6.90142C5.60193 6.46698 5.40037 6.0075 5.45852 5.32866C5.45325 5.2093 5.5772 4.8819 5.80413 4.54698C5.91745 4.37953 6.45873 3.92037 6.68618 3.73053L6.72644 3.7028C6.82216 3.64893 6.88189 3.57614 6.90856 3.48015C6.95202 3.32337 6.90642 3.10445 6.7867 2.89434C6.7779 2.87914 5.72147 1.08998 4.84316 0.625226C4.72663 0.563899 4.60078 0.534035 4.47599 0.534035Z" fill="#3E1F50"/>
<path d="M12.2835 11.4495C12.2744 11.4495 12.2651 11.4489 12.2558 11.4481C10.4173 11.2572 9.21368 10.089 9.16301 10.0395C9.05822 9.93626 9.05716 9.76774 9.16008 9.66295C9.263 9.55763 9.43179 9.55629 9.53711 9.65949C9.54804 9.67016 10.6642 10.7466 12.3107 10.9175C12.4571 10.933 12.5635 11.0639 12.5486 11.2105C12.5342 11.3473 12.4184 11.4495 12.2835 11.4495Z" fill="#3E1F50"/>
<path d="M6.41523 7.18341C6.3555 7.18341 6.29577 7.16341 6.24591 7.12234C6.18485 7.07222 4.74259 5.86514 4.55034 4.01118C4.53515 3.86453 4.6418 3.73361 4.78818 3.71814C4.9367 3.70454 5.06576 3.8096 5.08123 3.95598C5.25054 5.58783 6.57228 6.69999 6.58561 6.71092C6.69894 6.80505 6.71494 6.97276 6.62134 7.08635C6.56801 7.15034 6.49202 7.18341 6.41523 7.18341Z" fill="#3E1F50"/>
<path d="M0.266678 16C0.241347 16 0.215749 15.9963 0.190152 15.9888C0.0490989 15.9464 -0.0308934 15.7977 0.0112358 15.6569L0.709835 13.3283C0.757564 13.1694 0.901017 13.063 1.0666 13.063C1.23218 13.063 1.37564 13.1694 1.42337 13.328L1.86652 14.8055L2.30968 13.3283C2.35741 13.1694 2.50086 13.063 2.66645 13.063C2.83203 13.063 2.97548 13.1694 3.02321 13.328L3.46637 14.8055L3.90953 13.3283C3.95726 13.1694 4.10071 13.063 4.26629 13.063C4.43188 13.063 4.57533 13.1694 4.62306 13.328L5.06622 14.8055L5.50937 13.3283C5.5571 13.1694 5.70055 13.063 5.86614 13.063C6.03172 13.063 6.17518 13.1694 6.2229 13.328L6.66606 14.8055L7.10922 13.3283C7.15695 13.1694 7.3004 13.063 7.46598 13.063C7.63157 13.063 7.77502 13.1694 7.82275 13.328L8.06379 14.1317C8.30324 14.9303 9.02477 15.467 9.85829 15.467C10.8915 15.467 11.732 14.6266 11.732 13.5933V13.0672C11.732 12.9198 11.8512 12.8006 11.9986 12.8006C12.1461 12.8006 12.2653 12.9198 12.2653 13.0672V13.5933C12.2653 14.9207 11.1854 16.0003 9.85829 16.0003C8.78692 16.0003 7.86061 15.311 7.55291 14.2847L7.46598 13.9949L7.02283 15.4723C6.9751 15.6313 6.83165 15.7377 6.66606 15.7377C6.50048 15.7377 6.35702 15.6313 6.3093 15.4726L5.86614 13.9952L5.42298 15.4723C5.37525 15.6313 5.2318 15.7377 5.06622 15.7377C4.90063 15.7377 4.75718 15.6313 4.70945 15.4726L4.26629 13.9952L3.82314 15.4723C3.77541 15.6313 3.63195 15.7377 3.46637 15.7377C3.30078 15.7377 3.15733 15.6313 3.1096 15.4726L2.66645 13.9952L2.22329 15.4723C2.17556 15.6313 2.03211 15.7377 1.86652 15.7377C1.70094 15.7377 1.55749 15.6313 1.50976 15.4726L1.0666 13.9952L0.52212 15.8102C0.487457 15.9256 0.3816 16 0.266678 16Z" fill="#3E1F50"/>
</svg>
