<svg width="21" height="20" viewBox="0 0 21 20" fill="none" xmlns="http://www.w3.org/2000/svg">
<path d="M18.9679 0H8.12912V3.38706H9.48413V1.3547H18.9679C19.3743 1.3547 19.6453 1.6257 19.6453 2.03205V9.48383C19.6453 9.89017 19.3743 10.1612 18.9679 10.1612H10.1615V14.9032H6.57109L4.06472 16.8676V14.9032H2.03236C1.62601 14.9032 1.35501 14.6322 1.35501 14.2256V6.77413C1.35501 6.36777 1.62601 6.09677 2.03236 6.09677H10.8388V4.74176H2.03236C0.880678 4.74176 0 5.62244 0 6.77413V14.2256C0 15.3773 0.880678 16.2579 2.03236 16.2579H2.70971V19.7127L6.97744 16.2579H11.5162V11.5159H18.9679C20.1193 11.5159 21 10.6355 21 9.48383V2.03205C21 0.880678 20.1193 0 18.9679 0Z" fill="#E6F6FF"/>
<path d="M2.84574 13.4805H4.47146L4.8778 12.3965H6.97781L7.38449 13.4805H9.01019L6.70683 7.45142H5.08114L2.84574 13.4805ZM5.89413 9.14512L6.57148 11.2451H5.21677L5.89413 9.14512Z" fill="#E6F6FF"/>
<path d="M12.1943 9.48415C12.9397 9.48415 13.9557 9.28083 14.904 8.8068C15.8524 9.28083 16.9364 9.48415 17.6138 9.48415V8.12914C17.1283 8.11379 16.6484 8.02235 16.1914 7.85814C17.0041 7.04546 17.6138 5.82608 17.6138 4.06474V3.38739H15.5817V2.03239H14.2267V3.38739H12.1943V4.74209H16.1914C16.0557 5.96143 15.5137 6.70677 14.904 7.1808C14.4391 6.79553 14.0684 6.30898 13.8203 5.75841H12.3977C12.6686 6.6388 13.075 7.31644 13.617 7.85814C13.1639 8.0367 12.6813 8.12863 12.1943 8.12914V9.48415Z" fill="#E6F6FF"/>
</svg>
