<svg width="18" height="18" viewBox="0 0 18 18" fill="none" xmlns="http://www.w3.org/2000/svg">
<path d="M12.4334 0.503772H5.56562C2.77451 0.503772 0.503772 2.77451 0.503772 5.56562V12.4334C0.503772 15.2245 2.77451 17.4952 5.56562 17.4952H12.4334C15.2245 17.4952 17.4952 15.2245 17.4952 12.4334V5.56562C17.4952 2.77451 15.2245 0.503772 12.4334 0.503772ZM15.7859 12.4334C15.7859 14.2849 14.2849 15.7859 12.4334 15.7859H5.56562C3.7141 15.7859 2.21311 14.2849 2.21311 12.4334V5.56562C2.21311 3.71407 3.7141 2.21311 5.56562 2.21311H12.4334C14.2849 2.21311 15.7859 3.71407 15.7859 5.56562L15.7859 12.4334Z" fill="white" stroke="#707070"/>
<path d="M8.9994 4.60479C6.5762 4.60479 4.60479 6.5762 4.60479 8.99935C4.60479 11.4225 6.5762 13.394 8.9994 13.394C11.4226 13.394 13.394 11.4225 13.394 8.99935C13.394 6.57618 11.4226 4.60479 8.9994 4.60479ZM8.9994 11.6847C7.51634 11.6847 6.31412 10.4824 6.31412 8.9994C6.31412 7.51634 7.51639 6.31412 8.9994 6.31412C10.4824 6.31412 11.6847 7.51634 11.6847 8.9994C11.6847 10.4824 10.4824 11.6847 8.9994 11.6847Z" fill="white" stroke="#707070"/>
<circle cx="13.4013" cy="4.63844" r="1.05301" fill="white" stroke="#707070"/>
</svg>
