<svg width="16" height="26" viewBox="0 0 16 26" fill="none" xmlns="http://www.w3.org/2000/svg">
<path d="M7.82929 0.508723C3.79269 0.508723 0.508723 3.79269 0.508723 7.82929C0.508723 8.93013 0.747171 9.9881 1.21726 10.9745C1.22672 10.9956 1.23665 11.0164 1.24725 11.0371L6.77832 21.7464C6.98138 22.1394 7.38683 22.3864 7.82919 22.3864C8.27165 22.3864 8.67711 22.1395 8.88008 21.7464L14.4096 11.04C14.4192 11.0216 14.4281 11.0029 14.4366 10.9841C14.9098 9.99482 15.1497 8.93363 15.1497 7.82929C15.1499 3.79269 11.8659 0.508723 7.82929 0.508723ZM7.82929 11.661C5.71646 11.661 3.99755 9.94212 3.99755 7.82929C3.99755 5.71656 5.71646 3.99764 7.82929 3.99764C9.94212 3.99764 11.661 5.71656 11.661 7.82929C11.661 9.94212 9.94212 11.661 7.82929 11.661Z" fill="white" stroke="#707070"/>
<path d="M10.6497 24.0719H5.00997C4.61795 24.0719 4.3003 24.3896 4.3003 24.7816C4.3003 25.1736 4.61795 25.4912 5.00997 25.4912H10.6497C11.0417 25.4912 11.3593 25.1736 11.3593 24.7816C11.3593 24.3896 11.0416 24.0719 10.6497 24.0719Z" fill="white" stroke="#707070"/>
</svg>
