<svg width="17" height="17" viewBox="0 0 17 17" fill="none" xmlns="http://www.w3.org/2000/svg">
<path d="M11.9356 0H5.06439C2.27187 0 0 2.27187 0 5.06439V11.9356C0 14.7281 2.27187 17 5.06439 17H11.9356C14.7281 17 17 14.7281 17 11.9356V5.06439C17 2.27187 14.7281 0 11.9356 0ZM15.2898 11.9356C15.2898 13.7881 13.7881 15.2898 11.9356 15.2898H5.06439C3.21194 15.2898 1.7102 13.7881 1.7102 11.9356V5.06439C1.7102 3.21191 3.21194 1.7102 5.06439 1.7102H11.9356C13.7881 1.7102 15.2898 3.21191 15.2898 5.06439L15.2898 11.9356Z" fill="white"/>
<path d="M8.49989 4.10307C6.07547 4.10307 4.10307 6.07547 4.10307 8.49985C4.10307 10.9242 6.07547 12.8966 8.49989 12.8966C10.9243 12.8966 12.8967 10.9242 12.8967 8.49985C12.8967 6.07546 10.9243 4.10307 8.49989 4.10307ZM8.49989 11.1865C7.01609 11.1865 5.81326 9.98366 5.81326 8.49989C5.81326 7.01609 7.01614 5.81326 8.49989 5.81326C9.98366 5.81326 11.1865 7.01609 11.1865 8.49989C11.1865 9.98363 9.98363 11.1865 8.49989 11.1865Z" fill="white"/>
<circle cx="12.906" cy="4.13675" r="1.05353" fill="white"/>
</svg>
